<?xml version="1.0" encoding="utf-8"?>
<!-- Generator: Adobe Illustrator 22.1.0, SVG Export Plug-In . SVG Version: 6.00 Build 0)  -->
<svg version="1.1" id="Camada_1" xmlns="http://www.w3.org/2000/svg" xmlns:xlink="http://www.w3.org/1999/xlink" x="0px" y="0px"
	 width="600px" height="600px" viewBox="0 0 600 600" style="enable-background:new 0 0 600 600;" xml:space="preserve">
<style type="text/css">
	.st0{fill:#00BCD4;}
	.st1{fill:#673AB7;}
</style>
<g>
	<g>
		<path class="st0" d="M53.8,516.2c-3.7,0.9-8.6,1.8-15,1.8c-16.8,0-26.2-10.7-26.2-28.7V481c0-17.9,9.4-28.8,26.2-28.8
			c6.5,0,12,1,15,1.8c1.4,0.3,2.2,0.9,2.2,2.3v12.4c0,1.3-0.7,2.3-2.3,2.1c-3.7-0.3-7.2-0.8-12.6-0.8c-4.7,0-7.5,3-7.5,11.1v8.2
			c0,8.1,2.7,11,7.5,11c5.4,0,8.9-0.2,12.6-0.7c1.6-0.2,2.3,0.7,2.3,2.1v12.3C56,515.4,55.2,515.9,53.8,516.2z"/>
		<path class="st0" d="M85.2,517H68.6c-1.2,0-2.4-1.2-2.4-2.4v-80.2c0-1.2,1.2-2.2,2.4-2.2h16.6c1.2,0,2.2,1,2.2,2.2v80.2
			C87.4,515.8,86.4,517,85.2,517z"/>
		<path class="st0" d="M119.3,447.2H102c-1.2,0-2.5-1-2.5-2.2v-10.7c0-1.2,1.3-2.2,2.5-2.2h17.3c1.2,0,2.4,1,2.4,2.2V445
			C121.7,446.2,120.5,447.2,119.3,447.2z M118.7,517h-16.3c-1.2,0-2.4-1.2-2.4-2.4v-59.1c0-1.2,1.2-2.3,2.4-2.3h16.3
			c1.2,0,2.4,1.1,2.4,2.3v59.1C121.1,515.8,119.9,517,118.7,517z"/>
		<path class="st0" d="M173.4,516.2c-3.7,0.9-8.6,1.8-15,1.8c-16.8,0-26.2-10.7-26.2-28.7V481c0-17.9,9.4-28.8,26.2-28.8
			c6.5,0,12,1,15,1.8c1.4,0.3,2.2,0.9,2.2,2.3v12.4c0,1.3-0.7,2.3-2.3,2.1c-3.7-0.3-7.2-0.8-12.6-0.8c-4.7,0-7.5,3-7.5,11.1v8.2
			c0,8.1,2.7,11,7.5,11c5.4,0,8.9-0.2,12.6-0.7c1.6-0.2,2.3,0.7,2.3,2.1v12.3C175.6,515.4,174.8,515.9,173.4,516.2z"/>
		<path class="st0" d="M244.4,517h-20.3c-1.2,0-2.4-0.7-3.4-2.4l-13.9-25v25c0,1.2-1,2.4-2.2,2.4h-16.5c-1.2,0-2.4-1.2-2.4-2.4
			v-80.2c0-1.2,1.2-2.2,2.4-2.2h16.5c1.2,0,2.2,1,2.2,2.2v45.8l15-25.1c1-1.8,2.1-2,3.2-2h19c1,0,1.5,0.5,1.5,1.3
			c0,0.3-0.1,0.7-0.3,1l-19,28.4l19.4,30.7c0.2,0.3,0.2,0.7,0.2,0.9C245.9,516.2,245.3,517,244.4,517z"/>
		<path class="st1" d="M294.5,515.6c-4.8,1-12.2,2.1-18.4,2.1c-15.1,0-21.5-10.9-21.5-26.7v-7.2c0-17.3,7.2-26.2,21.5-26.2
			c4.3,0,10.9,0.7,15.2,1.6v-21.6c0-1.1,0.8-2.1,1.9-2.1h1.1c1.1,0,1.9,1,1.9,2.1v75.9C296.1,514.8,295.8,515.3,294.5,515.6z
			 M291.3,463.3c-4.2-0.9-11-1.4-15.2-1.4c-12.1,0-16.7,7.5-16.7,21.9v7.2c0,14.1,4.4,22.4,16.7,22.4c5.3,0,11.3-0.8,15.2-1.4V463.3
			z"/>
		<path class="st1" d="M332.4,517.7c-15,0-22.6-9.6-22.6-26.2v-7.7c0-16.6,7.6-26.2,22.6-26.2c15,0,22.6,9.7,22.6,26.2v7.7
			C355,508,347.4,517.7,332.4,517.7z M350.2,483.8c0-13.5-4.9-21.9-17.8-21.9s-17.8,8.4-17.8,21.9v7.7c0,13.5,4.9,21.9,17.8,21.9
			s17.8-8.4,17.8-21.9V483.8z"/>
		<path class="st0" d="M395.6,518c-9.9,0-18.9-1.5-24.6-2.7c-3.3-0.8-3.9-1.6-3.9-3.5v-77.3c0-1.2,1.2-2.2,2.4-2.2h16.5
			c1.2,0,2.2,1,2.2,2.2V453c2.3-0.3,5.7-0.8,7.5-0.8c19.4,0,28.8,11.2,28.8,28.6v8.6C424.4,507.8,413.6,518,395.6,518z M403.4,480.8
			c0-6.4-1.6-11.2-7.8-11.2c-2.6,0-5.3,0.2-7.5,0.4v30.1c2.1,0.2,4.2,0.5,7.5,0.5c6.1,0,7.8-4.7,7.8-11.3V480.8z"/>
		<path class="st0" d="M488,491h-34.1v0.2c0,5.8,2.4,9.4,10.4,9.4c5.8,0,16.6-0.5,20.8-0.9c1.8-0.1,2.4,0.2,2.4,1.9v9.9
			c0,1.8-0.4,2.5-2.2,3.1c-7,2.3-14.6,3.4-23.8,3.4c-14.8,0-28.5-7.8-28.5-28.7V482c0-19.3,11.2-29.8,29.2-29.8
			c19.2,0,28.1,12.2,28.1,29.8v6.6C490.3,490,489.3,491,488,491z M470.1,479.1c0-6.6-2.6-10.5-8.1-10.5c-5.3,0-8.1,3.9-8.1,10.5v0.3
			h16.2V479.1z"/>
		<path class="st0" d="M585.2,517h-16.5c-1.3,0-2.4-1.2-2.4-2.4v-37.4c0-5.5-1.5-6.7-5.4-6.7c-1.6,0-4.2,0.3-6.7,1.3
			c0.2,1.9,0.3,3.2,0.3,5.4v37.4c0,1.2-1,2.4-2.3,2.4h-16.5c-1.3,0-2.3-1.2-2.3-2.4v-37.4c0-5.5-1.4-6.7-5.3-6.7
			c-1.8,0-4.3,0.5-6.6,1.6v42.4c0,1.2-0.9,2.4-2.2,2.4h-16.5c-1.3,0-2.4-1.2-2.4-2.4v-59.2c0-1.2,1-2.2,2.2-2.2h15.2
			c1.2,0,2.2,1,2.2,2.2v2.5c5.5-4.2,10.6-5.6,16.9-5.6c5.4,0,10,1.6,12.8,5.6c5.7-4.7,11.3-5.6,18-5.6c13.9,0,19.4,9,19.4,24.9v37.4
			C587.4,515.8,586.6,517,585.2,517z"/>
	</g>
	<g>
		<polygon class="st0" points="300.3,128.3 345.4,83 425,83 488.7,146.8 488.7,231.8 444.3,274.3 		"/>
		<path class="st1" d="M403.2,229.8L256.4,83h-83.8l-59.6,59.6v83.8l120.8,118.7c0,0,68,70.8,141.7,0l113.3-113.3
			C488.7,231.8,442.7,269.3,403.2,229.8z M169.2,150.3c-6.3,0-11.3-5.1-11.3-11.3c0-6.3,5.1-11.3,11.3-11.3s11.3,5.1,11.3,11.3
			C180.6,145.2,175.5,150.3,169.2,150.3z"/>
	</g>
</g>
</svg>
